<svg width="24" height="25" viewBox="0 0 24 25" fill="none" xmlns="http://www.w3.org/2000/svg">
  <path d="M24.0003 12.8751C24.0003 6.24708 18.6282 0.875 12.0002 0.875C5.37226 0.875 0.000183105 6.24708 0.000183105 12.8751C0.000183105 18.8652 4.38596 23.8296 10.1263 24.7305V16.3469H7.08186V12.8751H10.1263V10.2318C10.1263 7.22681 11.9148 5.56324 14.6567 5.56324C15.9718 5.56324 17.346 5.79995 17.346 5.79995V8.7523H15.8337C14.3411 8.7523 13.8808 9.67943 13.8808 10.6263V12.8751H17.2079L16.6753 16.3469H13.8808V24.7305C19.6145 23.8296 24.0003 18.8652 24.0003 12.8751Z" fill="#1877F2"/>
  <path d="M16.6688 16.3467L17.2014 12.8749H13.8743V10.6261C13.8743 9.67929 14.3411 8.75217 15.8271 8.75217H17.3395V5.79982C17.3395 5.79982 15.9652 5.56311 14.6501 5.56311C11.9082 5.56311 10.1197 7.22668 10.1197 10.2316V12.8749H7.07532V16.3467H10.1197V24.7303C10.7312 24.829 11.3559 24.875 11.9937 24.875C12.6315 24.875 13.2562 24.8224 13.8677 24.7303V16.3467H16.6688Z" fill="white"/>
</svg>
