<svg width="24" height="25" viewBox="0 0 24 25" fill="none" xmlns="http://www.w3.org/2000/svg">
  <path d="M0.000244141 12.375C0.000244141 6.95385 0.000244141 4.24327 1.68438 2.55913C3.36851 0.875 6.07909 0.875 11.5002 0.875H12.5002C17.9214 0.875 20.632 0.875 22.3161 2.55913C24.0002 4.24327 24.0002 6.95385 24.0002 12.375V13.375C24.0002 18.7962 24.0002 21.5068 22.3161 23.1908C20.632 24.875 17.9214 24.875 12.5002 24.875H11.5002C6.07909 24.875 3.36851 24.875 1.68438 23.1908C0.000244141 21.5068 0.000244141 18.7962 0.000244141 13.375L0.000244141 12.375Z" fill="#2787F5"/>
  <path fill-rule="evenodd" clip-rule="evenodd" d="M6.5007 8.375H4.7503C4.25018 8.375 4.15015 8.6104 4.15015 8.8699C4.15015 9.33345 4.74358 11.6324 6.91325 14.6729C8.3597 16.7494 10.3976 17.875 12.252 17.875C13.3647 17.875 13.5023 17.625 13.5023 17.1944V15.625C13.5023 15.125 13.6077 15.0252 13.96 15.0252C14.2197 15.0252 14.6647 15.155 15.7032 16.1561C16.8901 17.3427 17.0857 17.875 17.7533 17.875H19.5037C20.0038 17.875 20.2539 17.625 20.1096 17.1317C19.9518 16.64 19.3851 15.9265 18.6332 15.0808C18.2252 14.5988 17.6133 14.0797 17.4278 13.8201C17.1682 13.4864 17.2424 13.338 17.4278 13.0414C17.4278 13.0414 19.5604 10.038 19.783 9.0183C19.8942 8.64745 19.783 8.375 19.2536 8.375H17.5032C17.0582 8.375 16.853 8.6104 16.7417 8.8699C16.7417 8.8699 15.8516 11.0391 14.5906 12.4481C14.1826 12.856 13.9971 12.9858 13.7746 12.9858C13.6633 12.9858 13.5023 12.856 13.5023 12.4853V9.0183C13.5023 8.5733 13.3731 8.375 13.0022 8.375H10.2515C9.97345 8.375 9.80615 8.5815 9.80615 8.77725C9.80615 9.19905 10.4366 9.29635 10.5016 10.4829V13.06C10.5016 13.625 10.3995 13.7275 10.177 13.7275C9.58365 13.7275 8.1402 11.5486 7.2841 9.05535C7.11635 8.57075 6.94805 8.375 6.5007 8.375Z" fill="white"/>
</svg>
