<svg width="25" height="25" viewBox="0 0 25 25" fill="none" xmlns="http://www.w3.org/2000/svg">
  <path d="M0.638532 6.93168C0.748701 5.23559 2.11234 3.90636 3.80993 3.82226C6.26814 3.70047 9.78165 3.55359 12.429 3.55359C15.0763 3.55359 18.5898 3.70047 21.048 3.82226C22.7456 3.90636 24.1092 5.23559 24.2194 6.93168C24.3249 8.55667 24.429 10.5562 24.429 12.125C24.429 13.6939 24.3249 15.6934 24.2194 17.3184C24.1092 19.0144 22.7456 20.3437 21.048 20.4278C18.5898 20.5496 15.0763 20.6964 12.429 20.6964C9.78165 20.6964 6.26814 20.5496 3.80993 20.4278C2.11234 20.3437 0.748701 19.0144 0.638532 17.3184C0.532981 15.6934 0.428955 13.6939 0.428955 12.125C0.428955 10.5562 0.532981 8.55667 0.638532 6.93168Z" fill="#FC0D1B"/>
  <path d="M9.85751 8.69641V15.5536L16.7147 12.125L9.85751 8.69641Z" fill="white"/>
</svg>
